<?xml version="1.0" encoding="UTF-8"?>
<svg id="Layer_1" data-name="Layer 1" xmlns="http://www.w3.org/2000/svg" viewBox="0 0 8414.7 1773.45">
  <defs>
    <style>
      .cls-1 {
        fill: #10b3ad;
      }

      .cls-2 {
        fill: #67489d;
      }
    </style>
  </defs>
  <g>
    <path class="cls-2" d="M4195.79,1572.14l-35.01-40.22c-66.43-76.31-58.39-192.43,17.92-258.86,76.31-66.43,192.43-58.39,258.86,17.92l35.01,40.22,157.66-137.25-35.01-40.22c-142.11-163.24-390.53-180.43-553.76-38.33-163.24,142.11-180.43,390.53-38.33,553.76l35.01,40.22,157.66-137.25Z"/>
    <path class="cls-2" d="M4334.18,1451.66c-76.31,66.43-84.34,182.55-17.92,258.86,66.43,76.31,182.55,84.34,258.86,17.92,76.31-66.43,84.34-182.55,17.92-258.86-66.43-76.31-182.55-84.34-258.86-17.92Z"/>
  </g>
  <g>
    <path class="cls-2" d="M3629.28,767.83l40.22-35.01c76.31-66.43,192.43-58.39,258.86,17.92,66.43,76.31,58.39,192.43-17.92,258.86l-40.22,35.01,137.25,157.66,40.22-35.01c163.24-142.11,180.43-390.53,38.33-553.76-142.11-163.24-390.53-180.43-553.76-38.33l-40.22,35.01,137.25,157.66Z"/>
    <path class="cls-2" d="M3749.75,906.22c-66.43-76.31-182.55-84.34-258.86-17.92-76.31,66.43-84.34,182.55-17.92,258.86,66.43,76.31,182.55,84.34,258.86,17.92,76.31-66.43,84.34-182.55,17.92-258.86Z"/>
  </g>
  <g>
    <path class="cls-2" d="M4433.59,201.31l35.01,40.22c66.43,76.31,58.39,192.43-17.92,258.86-76.31,66.43-192.43,58.39-258.86-17.92l-35.01-40.22-157.66,137.25,35.01,40.22c142.11,163.24,390.53,180.43,553.76,38.33,163.24-142.11,180.43-390.53,38.33-553.76l-35.01-40.22-157.66,137.25Z"/>
    <path class="cls-2" d="M4295.2,321.79c76.31-66.43,84.34-182.55,17.92-258.86-66.43-76.31-182.55-84.34-258.86-17.92-76.31,66.43-84.34,182.55-17.92,258.86,66.43,76.31,182.55,84.34,258.86,17.92Z"/>
  </g>
  <g>
    <path class="cls-2" d="M5000.12,1005.63l-40.22,35.01c-76.31,66.43-192.43,58.39-258.86-17.92-66.43-76.31-58.39-192.43,17.92-258.86l40.22-35.01-137.25-157.66-40.22,35.01c-163.24,142.11-180.43,390.53-38.33,553.76,142.11,163.24,390.53,180.43,553.76,38.33l40.22-35.01-137.25-157.66Z"/>
    <path class="cls-2" d="M4879.65,867.24c66.43,76.31,182.55,84.34,258.86,17.92,76.31-66.43,84.34-182.55,17.92-258.86-66.43-76.31-182.55-84.34-258.86-17.92-76.31,66.43-84.34,182.55-17.92,258.86Z"/>
  </g>
  <path class="cls-2" d="M3391.48,668.94c-36.2,0-61.97-27.11-61.97-62.98,0-37.89,28.63-62.98,61.97-62.98s61.63,25.09,61.63,62.98-28.63,62.98-61.63,62.98ZM3391.48,553.93c-27.28,0-48.5,21.39-48.5,52.03,0,28.63,18.52,52.03,48.5,52.03,26.94,0,48.16-21.21,48.16-52.03s-21.22-52.03-48.16-52.03ZM3379.02,642h-11.45v-69.71h26.44c16.84,0,25.43,5.89,25.43,20.04,0,12.63-7.74,17.85-18.18,19.03l19.53,30.65h-12.96l-18.02-29.8h-10.78v29.8ZM3391.82,602.43c8.59,0,16.17-.84,16.17-10.94,0-8.42-8.25-9.43-15.16-9.43h-13.81v20.37h12.8Z"/>
  <g>
    <g>
      <path class="cls-1" d="M408.35,1358.42c0,37.68-3.53,69.53-10.59,95.58-7.06,26.04-20.53,46.79-40.39,62.24-19.87,15.45-48.05,23.17-84.54,23.17s-65.04-8.02-84.76-24.06c-19.72-16.04-32.97-36.93-39.73-62.68-6.77-25.76-10.15-56.88-10.15-93.38v-169.96H0v229.56c0,52.98,10.74,98.07,32.23,135.3,21.48,37.23,52.67,65.4,93.59,84.54,40.9,19.12,89.9,28.69,147,28.69,88.88,0,156.79-21.42,203.74-64.24,46.94-42.82,70.41-105.43,70.41-187.84v-349.19h-138.62v292.24Z"/>
      <path class="cls-1" d="M232.35,1020.34c13.93,8.24,28.93,12.37,45.03,12.37s31-4.13,44.74-12.37c13.74-8.23,24.62-19.13,32.67-32.66,8.05-13.55,12.07-27.75,12.07-42.69,0-16.87-4.02-32.46-12.07-46.78-8.05-14.32-18.93-25.61-32.67-33.85-13.74-8.24-28.65-12.36-44.74-12.36s-31.11,4.11-45.03,12.36c-13.93,8.24-25.01,19.53-33.25,33.85-8.24,14.32-12.37,29.92-12.37,46.78,0,14.93,4.12,29.14,12.37,42.69,8.24,13.53,19.32,24.43,33.25,32.66Z"/>
      <path class="cls-1" d="M2911.41,1066.18v276.79h-76.81v-247.65h-138.61v247.65h-76.81v-247.65h-138.18v247.65h-152.3v-98.45c0-58.27-14.06-102.56-42.16-132.88-28.11-30.3-71.59-45.47-130.45-45.47h-229.56l250.31-163.34v-150.1l-322.72,216.75c-27.37,18.55-48.05,35.55-62.02,50.99-13.98,15.45-23.55,31.72-28.69,48.78-5.15,17.07-7.72,38.41-7.72,64.02v61.36h364.2c25.61,0,43.93,5.01,54.96,15,11.04,10.01,16.56,27.37,16.56,52.1v81.22h-1128.82v-276.79h-235.74c-57.68,0-100.29,14.42-127.8,43.26-27.52,28.84-41.28,71.81-41.28,128.9v233.09h265.76c0,19.71-1.26,34.06-3.75,43.04-2.5,8.97-7.72,15.23-15.67,18.76-7.95,3.54-20.75,5.3-38.41,5.3h-139.94v128.91h147c49.45,0,87.63-7.88,114.56-23.63,26.93-15.75,45.62-37.6,56.07-65.55,10.44-27.96,16.55-63.57,18.32-106.83h1987.89v-405.26h-138.18ZM924.41,1342.97h-129.34v-90.49c0-21.2,5.36-36.13,16.11-44.81,10.74-8.67,28.62-13.02,53.64-13.02h59.59v148.33Z"/>
    </g>
    <path class="cls-2" d="M2968.68,919.79c2.86,0,5.68-.16,8.47-.45-17.53,17.12-41.45,27.72-67.83,27.72v43.09c77.35,0,140.27-62.93,140.27-140.28h-.84c.49-3.6.84-7.25.84-10.99,0-44.61-36.29-80.91-80.91-80.91s-80.91,36.3-80.91,80.91,36.3,80.91,80.91,80.91ZM2968.68,801.06c20.85,0,37.82,16.97,37.82,37.82s-16.97,37.82-37.82,37.82-37.82-16.97-37.82-37.82,16.97-37.82,37.82-37.82Z"/>
  </g>
  <g>
    <path class="cls-2" d="M5555.77,1468.61c-16.75,0-33.36-2.27-49.86-6.8-16.51-4.57-32.17-11.62-47-21.18-25.82-16.75-45.92-38.38-60.26-64.94-14.34-26.55-21.53-55.59-21.53-87.17h121.26c0,14.34,3.11,25.47,9.33,33.36,6.21,7.89,11.71,13.26,16.49,16.16,8.62,5.72,17.95,8.86,27.99,9.32,10.05.49,19.85-1.43,29.42-5.72,6.7-2.9,12.07-6.49,16.16-10.78,4.05-4.29,7.17-8.48,9.32-12.56,2.16-4.05,3.47-7.99,3.94-11.83.47-3.84.72-6.94.72-9.32s-.24-5.51-.72-9.35c-.47-3.8-1.78-7.89-3.94-12.18-2.15-4.33-5.27-8.48-9.32-12.56-4.08-4.05-9.46-7.78-16.16-11.13-5.27-2.37-10.89-4.54-16.85-6.46-5.98-1.88-12.32-4.05-19.02-6.46-11.95-3.8-24.39-8.13-37.3-12.91-12.91-4.78-25.84-11.24-38.75-19.37-16.75-10.5-30.85-23.69-42.33-39.47-11.48-15.77-19.73-32.77-24.76-50.95-5.02-18.18-6.7-36.95-5.02-56.32,1.67-19.37,7.05-37.9,16.16-55.59,8.6-16.26,19.37-30.39,32.28-42.33,12.91-11.97,27.27-21.43,43.04-28.37,15.79-6.91,32.77-11.1,50.95-12.53,18.18-1.47,36.59.24,55.26,4.99,18.13,4.33,34.56,11.13,49.31,20.45,14.73,9.35,27.46,20.59,38.16,33.74,10.7,13.16,18.9,27.88,24.6,44.11,5.71,16.3,8.57,33.25,8.57,50.95h-120.63c0-10.99-3.49-18.63-10.42-22.96-6.93-4.29-13.03-7.15-18.28-8.58-.98,0-3.23-.38-6.82-1.08-3.59-.73-7.66-.73-12.2,0-4.55.7-9.21,2.37-13.99,5.02-4.78,2.62-8.6,6.8-11.48,12.53-3.84,7.68-4.55,15.7-2.15,24.04,2.39,8.37,7.17,14.97,14.34,19.75,6.7,3.84,14.11,7.29,22.25,10.4,8.13,3.11,16.73,6.11,25.82,8.97,8.13,2.41,16.38,5.02,24.74,7.89,8.36,2.86,16.8,6.21,25.37,10.05,31.37,14.34,55.99,35.38,73.82,63.12,17.83,27.74,26.75,58.62,26.75,92.57s-8.92,64.1-26.75,91.84c-17.83,27.74-42.45,48.78-73.82,63.12-12.37,5.72-25,9.91-37.91,12.56-12.91,2.62-25.82,3.94-38.73,3.94Z"/>
    <path class="cls-2" d="M6015.48,1468.61c-26.8,0-52.13-4.89-76.07-14.73-23.9-9.77-45.19-23.76-63.86-41.94-19.12-19.12-33.81-40.65-44.11-64.59-10.29-23.9-15.67-49.52-16.16-76.77v-329.33h121.26v328.64c0,21.04,7.89,39.43,23.69,55.24,15.77,14.83,34.44,22.23,55.94,22.23,10.54,0,20.59-2.16,30.15-6.46,9.56-4.29,17.94-10.05,25.12-17.2,7.15-7.19,12.67-15.56,16.51-25.12,3.8-9.56,5.72-19.85,5.72-30.85v-326.47h121.26v325.74c.45,27.29-4.43,53.11-14.73,77.5-10.26,24.39-24.39,45.68-42.33,63.86-17.94,18.18-38.98,32.63-63.12,43.41-24.15,10.75-49.86,16.4-77.12,16.85h-2.16Z"/>
    <path class="cls-2" d="M6506.12,1205.3l270.47,263.31h-175.07l-169.31-165.75v165.75h-121.26v-527.36h121.26v166.48l170.04-166.48h174.33l-270.47,264.05Z"/>
    <path class="cls-2" d="M7048.13,941.62c36.29,0,70.45,6.94,102.45,20.83,32,13.85,59.95,32.63,83.82,56.32,23.9,23.66,42.75,51.54,56.6,83.57,13.85,32.07,20.8,66.26,20.8,102.59s-6.94,70.59-20.8,102.62c-13.85,32.03-32.7,59.91-56.6,83.57-23.87,23.69-51.82,42.47-83.82,56.32-32,13.89-66.16,20.8-102.45,20.8s-70.45-6.91-102.48-20.8c-32-13.85-59.81-32.63-83.47-56.32-23.62-23.66-42.4-51.54-56.25-83.57-13.85-32.03-20.76-66.26-20.76-102.62s6.91-70.52,20.76-102.59c13.85-32.03,32.63-59.91,56.25-83.57,23.66-23.69,51.47-42.47,83.47-56.32,32.03-13.89,66.16-20.83,102.48-20.83ZM7048.48,1347.02c19.61,0,38.03-3.7,55.24-11.13,17.24-7.4,32.28-17.59,45.22-30.5,12.91-12.91,23.07-27.99,30.46-45.19,7.43-17.24,11.13-35.63,11.13-55.27s-3.7-38-11.13-55.24c-7.4-17.2-17.55-32.28-30.46-45.19-12.95-12.91-27.99-23.07-45.22-30.5-17.2-7.4-35.63-11.13-55.24-11.13s-38.03,3.73-55.24,11.13c-17.24,7.43-32.28,17.59-45.22,30.5-12.91,12.91-23.07,27.99-30.46,45.19-7.43,17.24-11.13,35.66-11.13,55.24s3.7,38.03,11.13,55.27c7.4,17.2,17.55,32.28,30.46,45.19,12.95,12.91,27.99,23.1,45.22,30.5,17.2,7.43,35.63,11.13,55.24,11.13Z"/>
    <path class="cls-2" d="M7632.8,941.63c36.29,0,70.45,6.94,102.45,20.83,32,13.85,59.95,32.63,83.82,56.32,23.9,23.66,42.75,51.54,56.6,83.57,13.85,32.07,20.8,66.26,20.8,102.59s-6.94,70.59-20.8,102.62c-13.85,32.03-32.7,59.91-56.6,83.57-23.87,23.69-51.82,42.47-83.82,56.32-32,13.89-66.16,20.8-102.45,20.8s-70.45-6.91-102.48-20.8c-32-13.85-59.81-32.63-83.47-56.32-23.62-23.66-42.4-51.54-56.25-83.57-13.85-32.03-20.76-66.26-20.76-102.62s6.91-70.52,20.76-102.59c13.85-32.03,32.63-59.91,56.25-83.57,23.66-23.69,51.47-42.47,83.47-56.32,32.03-13.89,66.16-20.83,102.48-20.83ZM7633.15,1347.04c19.61,0,38.03-3.7,55.24-11.13,17.24-7.4,32.28-17.59,45.22-30.5,12.91-12.91,23.07-27.99,30.46-45.19,7.43-17.24,11.13-35.63,11.13-55.27s-3.7-38-11.13-55.24c-7.4-17.2-17.55-32.28-30.46-45.19-12.95-12.91-27.99-23.07-45.22-30.5-17.2-7.4-35.63-11.13-55.24-11.13s-38.03,3.73-55.24,11.13c-17.24,7.43-32.28,17.59-45.22,30.5-12.91,12.91-23.07,27.99-30.46,45.19-7.43,17.24-11.13,35.66-11.13,55.24s3.7,38.03,11.13,55.27c7.4,17.2,17.55,32.28,30.46,45.19,12.95,12.91,27.99,23.1,45.22,30.5,17.2,7.43,35.63,11.13,55.24,11.13Z"/>
    <path class="cls-2" d="M8414.7,931.33v526.63h-131.27l-172.2-307.07v307.07h-121.26v-525.2h132.01l171.51,306.37v-307.8h121.22Z"/>
  </g>
</svg>